<svg width="24" height="24" viewBox="0 0 24 24" fill="none" xmlns="http://www.w3.org/2000/svg">
<g clip-path="url(#clip0)">
<path fill-rule="evenodd" clip-rule="evenodd" d="M18.3627 5.63952C17.7769 5.05373 16.8271 5.05373 16.2413 5.63952L12.0003 9.8806L7.7594 5.63975C7.17362 5.05396 6.22387 5.05396 5.63808 5.63975C5.0523 6.22553 5.0523 7.17528 5.63808 7.76107L9.87894 12.0019L5.63474 16.2461C5.04895 16.8319 5.04895 17.7817 5.63474 18.3674C6.22053 18.9532 7.17027 18.9532 7.75606 18.3674L12.0003 14.1232L16.2447 18.3677C16.8305 18.9535 17.7802 18.9535 18.366 18.3677C18.9518 17.7819 18.9518 16.8321 18.366 16.2464L14.1216 12.0019L18.3627 7.76084C18.9484 7.17505 18.9484 6.2253 18.3627 5.63952Z" fill="#8B97BC"/>
</g>
<defs>
<clipPath id="clip0">
<rect width="24" height="24" fill="white"/>
</clipPath>
</defs>
</svg>
