<svg width="28" height="28" viewBox="0 0 28 28" fill="none" xmlns="http://www.w3.org/2000/svg">
<rect width="28" height="28" fill="white" fill-opacity="0.01"/>
<path d="M21.362 9C21.6427 9 21.9208 9.05573 22.1802 9.16402C22.4396 9.2723 22.6752 9.43101 22.8738 9.63109C23.0723 9.83118 23.2298 10.0687 23.3373 10.3301C23.4447 10.5915 23.5 10.8717 23.5 11.1547V20.2571C23.5 20.8285 23.2747 21.3766 22.8738 21.7807C22.4728 22.1848 21.929 22.4118 21.362 22.4118H6.63803C6.35726 22.4118 6.07924 22.356 5.81984 22.2477C5.56045 22.1395 5.32475 21.9807 5.12622 21.7807C4.92768 21.5806 4.77019 21.3431 4.66275 21.0816C4.5553 20.8202 4.5 20.54 4.5 20.2571V11.1547C4.5 10.5832 4.72526 10.0352 5.12622 9.63109C5.52717 9.22701 6.07099 9 6.63803 9H21.362Z" fill="#6675A1"/>
<path d="M18.8715 18.1688L9.1149 18.162L9.01716 18.1688C8.83675 18.1938 8.67249 18.2869 8.55757 18.4293C8.44265 18.5716 8.38564 18.7526 8.39805 18.9357C8.41046 19.1188 8.49138 19.2904 8.62444 19.4157C8.75751 19.5409 8.9328 19.6107 9.1149 19.6107L18.8715 19.6175L18.9692 19.6107C19.1496 19.5857 19.3139 19.4926 19.4288 19.3502C19.5437 19.2079 19.6007 19.0269 19.5883 18.8438C19.5759 18.6607 19.495 18.4891 19.3619 18.3639C19.2289 18.2386 19.0536 18.1688 18.8715 18.1688Z" fill="white"/>
<path d="M18.9926 14.9742C18.8128 14.7931 18.5691 14.6913 18.3149 14.6913C18.0608 14.6913 17.817 14.7931 17.6373 14.9742C17.4576 15.1553 17.3566 15.401 17.3566 15.6571C17.3566 15.9133 17.4576 16.1589 17.6373 16.34C17.817 16.5212 18.0608 16.6229 18.3149 16.6229C18.5691 16.6229 18.8128 16.5212 18.9926 16.34C19.1723 16.1589 19.2733 15.9133 19.2733 15.6571C19.2733 15.401 19.1723 15.1553 18.9926 14.9742Z" fill="white"/>
<path d="M13.2474 14.9742C13.0677 14.7931 12.8239 14.6913 12.5698 14.6913C12.3156 14.6913 12.0719 14.7931 11.8921 14.9742C11.7124 15.1553 11.6114 15.401 11.6114 15.6571C11.6114 15.9133 11.7124 16.1589 11.8921 16.34C12.0719 16.5212 12.3156 16.6229 12.5698 16.6229C12.8239 16.6229 13.0677 16.5212 13.2474 16.34C13.4271 16.1589 13.5281 15.9133 13.5281 15.6571C13.5281 15.401 13.4271 15.1553 13.2474 14.9742Z" fill="white"/>
<path d="M10.3724 14.9742C10.1927 14.7931 9.94896 14.6913 9.69479 14.6913C9.44063 14.6913 9.19688 14.7931 9.01716 14.9742C8.83744 15.1553 8.73647 15.401 8.73647 15.6571C8.73647 15.9133 8.83744 16.1589 9.01716 16.34C9.19688 16.5212 9.44063 16.6229 9.69479 16.6229C9.94896 16.6229 10.1927 16.5212 10.3724 16.34C10.5522 16.1589 10.6531 15.9133 10.6531 15.6571C10.6531 15.401 10.5522 15.1553 10.3724 14.9742Z" fill="white"/>
<path d="M16.1224 14.9742C15.9427 14.7931 15.6989 14.6913 15.4447 14.6913C15.1906 14.6913 14.9468 14.7931 14.7671 14.9742C14.5874 15.1553 14.4864 15.401 14.4864 15.6571C14.4864 15.9133 14.5874 16.1589 14.7671 16.34C14.9468 16.5212 15.1906 16.6229 15.4447 16.6229C15.6989 16.6229 15.9427 16.5212 16.1224 16.34C16.3021 16.1589 16.4031 15.9133 16.4031 15.6571C16.4031 15.401 16.3021 15.1553 16.1224 14.9742Z" fill="white"/>
<path d="M8.93015 12.0768C8.75043 11.8957 8.50668 11.7939 8.25251 11.7939C7.99835 11.7939 7.7546 11.8957 7.57488 12.0768C7.39516 12.2579 7.29419 12.5036 7.29419 12.7597C7.29419 13.0159 7.39516 13.2615 7.57488 13.4427C7.7546 13.6238 7.99835 13.7255 8.25251 13.7255C8.50668 13.7255 8.75043 13.6238 8.93015 13.4427C9.10987 13.2615 9.21084 13.0159 9.21084 12.7597C9.21084 12.5036 9.10987 12.2579 8.93015 12.0768Z" fill="white"/>
<path d="M11.8003 12.0768C11.6206 11.8957 11.3769 11.7939 11.1227 11.7939C10.8685 11.7939 10.6248 11.8957 10.4451 12.0768C10.2653 12.2579 10.1644 12.5036 10.1644 12.7597C10.1644 13.0159 10.2653 13.2615 10.4451 13.4427C10.6248 13.6238 10.8685 13.7255 11.1227 13.7255C11.3769 13.7255 11.6206 13.6238 11.8003 13.4427C11.9801 13.2615 12.081 13.0159 12.081 12.7597C12.081 12.5036 11.9801 12.2579 11.8003 12.0768Z" fill="white"/>
<path d="M14.6753 12.0768C14.4956 11.8957 14.2518 11.7939 13.9977 11.7939C13.7435 11.7939 13.4998 11.8957 13.32 12.0768C13.1403 12.2579 13.0394 12.5036 13.0394 12.7597C13.0394 13.0159 13.1403 13.2615 13.32 13.4427C13.4998 13.6238 13.7435 13.7255 13.9977 13.7255C14.2518 13.7255 14.4956 13.6238 14.6753 13.4427C14.855 13.2615 14.956 13.0159 14.956 12.7597C14.956 12.5036 14.855 12.2579 14.6753 12.0768Z" fill="white"/>
<path d="M17.5503 12.0768C17.3706 11.8957 17.1268 11.7939 16.8727 11.7939C16.6185 11.7939 16.3747 11.8957 16.195 12.0768C16.0153 12.2579 15.9143 12.5036 15.9143 12.7597C15.9143 13.0159 16.0153 13.2615 16.195 13.4427C16.3747 13.6238 16.6185 13.7255 16.8727 13.7255C17.1268 13.7255 17.3706 13.6238 17.5503 13.4427C17.73 13.2615 17.831 13.0159 17.831 12.7597C17.831 12.5036 17.73 12.2579 17.5503 12.0768Z" fill="white"/>
<path d="M20.4253 12.0768C20.2455 11.8957 20.0018 11.7939 19.7476 11.7939C19.4935 11.7939 19.2497 11.8957 19.07 12.0768C18.8903 12.2579 18.7893 12.5036 18.7893 12.7597C18.7893 13.0159 18.8903 13.2615 19.07 13.4427C19.2497 13.6238 19.4935 13.7255 19.7476 13.7255C20.0018 13.7255 20.2455 13.6238 20.4253 13.4427C20.605 13.2615 20.706 13.0159 20.706 12.7597C20.706 12.5036 20.605 12.2579 20.4253 12.0768Z" fill="white"/>
<path d="M19.4419 4.92169C19.7623 5.18876 19.7607 5.67036 19.4658 5.96532C19.171 6.26012 18.6953 6.25631 18.3697 5.99598C17.8716 5.59776 17.3189 5.27086 16.7274 5.02582C15.9029 4.68426 15.0192 4.50846 14.1267 4.50846C13.2343 4.50846 12.3506 4.68426 11.5261 5.02582C10.9347 5.27081 10.3821 5.59764 9.88404 5.99576C9.55819 6.25622 9.08231 6.26013 8.78723 5.96526C8.49205 5.67028 8.49019 5.18852 8.81056 4.92113C11.8799 2.35944 16.368 2.35962 19.4419 4.92169ZM15.728 9.70162L14.126 11.3044L12.524 9.70162C12.7343 9.49118 12.9841 9.32424 13.2589 9.21034C13.5338 9.09644 13.8284 9.03782 14.126 9.03782C14.4235 9.03782 14.7181 9.09644 14.993 9.21034C15.2679 9.32424 15.5176 9.49118 15.728 9.70162ZM17.2929 7.07257C17.627 7.32266 17.6246 7.80649 17.3296 8.10154C17.0348 8.39627 16.56 8.38867 16.2126 8.15845C15.5984 7.75155 14.8736 7.52992 14.126 7.52992C13.3784 7.52992 12.6537 7.75148 12.0397 8.15826C11.692 8.38855 11.217 8.39616 10.9222 8.1013C10.6271 7.8063 10.6246 7.32261 10.9584 7.07237C12.8288 5.67023 15.42 5.67029 17.2929 7.07257Z" fill="#6675A1"/>
</svg>
