<svg width="28" height="28" viewBox="0 0 28 28" fill="none" xmlns="http://www.w3.org/2000/svg">
<rect width="28" height="28" fill="white" fill-opacity="0.01"/>
<path fill-rule="evenodd" clip-rule="evenodd" d="M14.8991 3C9.98428 3 6 6.95686 6 11.8379C6 14.0086 6.82913 15.9017 8.14541 17.4197L8.27295 17.567L8.27296 17.567C9.13967 18.5682 10.1411 19.725 11.4023 20.5168H18.1778C19.5224 19.8169 20.7095 18.4745 21.642 17.4197C22.9834 15.9027 23.7983 14.0289 23.7983 11.8279C23.7983 6.94691 19.814 3 14.8991 3ZM11.0277 23.7651C11.0277 23.0824 11.5811 22.5291 12.2637 22.5291H17.2077C17.8903 22.5291 18.4437 23.0824 18.4437 23.7651C18.4437 24.4477 17.8903 25.0011 17.2077 25.0011H12.2637C11.5811 25.0011 11.0277 24.4477 11.0277 23.7651ZM16.6079 9.75828C16.2762 9.61608 15.8878 9.65671 15.5976 9.86399L13.4736 11.3813L11.8496 10.6853C11.353 10.4724 10.7663 10.6773 10.5393 11.1429C10.3123 11.6086 10.5308 12.1586 11.0275 12.3714L13.1903 13.2984C13.5221 13.4406 13.9105 13.4 14.2006 13.1927L16.3247 11.6754L17.9486 12.3714C18.4453 12.5843 19.0319 12.3794 19.259 11.9137C19.486 11.4481 19.2674 10.8981 18.7708 10.6853L16.6079 9.75828Z" fill="#6675A1"/>
</svg>
