<svg width="28" height="28" viewBox="0 0 28 28" fill="none" xmlns="http://www.w3.org/2000/svg">
<rect width="28" height="28" fill="white" fill-opacity="0.01"/>
<path fill-rule="evenodd" clip-rule="evenodd" d="M4.5 8.5C4.5 6.29086 6.29086 4.5 8.5 4.5H19.5C21.7091 4.5 23.5 6.29086 23.5 8.5V19.5C23.5 21.7091 21.7091 23.5 19.5 23.5H8.5C6.29086 23.5 4.5 21.7091 4.5 19.5V8.5ZM7.66406 9.35634C7.66406 8.77337 8.13665 8.30078 8.71962 8.30078H11.8495C11.8631 8.30026 11.8768 8.3 11.8905 8.3C11.9043 8.3 11.9179 8.30026 11.9315 8.30078H15.053C15.6359 8.30078 16.1085 8.77337 16.1085 9.35634C16.1085 9.9393 15.6359 10.4119 15.053 10.4119H12.9461V16.7444C12.9461 17.3274 12.4735 17.8 11.8905 17.8C11.3076 17.8 10.835 17.3274 10.835 16.7444V10.4119H8.71962C8.13665 10.4119 7.66406 9.9393 7.66406 9.35634ZM15.5825 11.9961C14.9995 11.9961 14.527 12.4687 14.527 13.0516C14.527 13.6346 14.9995 14.1072 15.5825 14.1072H16.1119V16.7453C16.1119 17.3282 16.5845 17.8008 17.1675 17.8008C17.7505 17.8008 18.223 17.3282 18.223 16.7453V14.1072H18.7492C19.3321 14.1072 19.8047 13.6346 19.8047 13.0516C19.8047 12.4687 19.3321 11.9961 18.7492 11.9961H15.5825Z" fill="#6675A1"/>
</svg>
