<svg width="32" height="32" viewBox="0 0 32 32" fill="none" xmlns="http://www.w3.org/2000/svg">
<path d="M21.9472 25.7979C21.9472 24.8888 22.4452 24.0653 23.1706 23.5172C26.0614 21.3331 27.9296 17.8671 27.9296 13.9648C27.9296 7.35682 22.5728 2 15.9648 2C9.35682 2 4 7.35682 4 13.9648C4 17.8002 5.80462 21.214 8.61106 23.4036C9.31486 23.9527 9.79544 24.7642 9.79544 25.6569V27.4531C9.79544 28.8597 10.9357 30 12.3424 30H19.4002C20.8069 30 21.9472 28.8597 21.9472 27.4531V25.7979Z" fill="#E5F1FF" stroke="#557FFF" stroke-width="3"/>
<path d="M12 14.0404L14.601 15.0808L17.7223 13L20.3233 14.0404" stroke="#557FFF" stroke-width="3" stroke-linecap="round" stroke-linejoin="round"/>
<line x1="10.0391" y1="25.9992" x2="21.7641" y2="25.9992" stroke="#557FFF" stroke-width="2.4"/>
</svg>
